<svg width="21" height="21" viewBox="0 0 21 21"  xmlns="http://www.w3.org/2000/svg">
<g clip-path="url(#clip0_9701_96)">
<path d="M10.5035 5.10828C7.52586 5.10828 5.11523 7.52153 5.11523 10.4965C5.11523 13.4742 7.52848 15.8848 10.5035 15.8848C13.4811 15.8848 15.8917 13.4715 15.8917 10.4965C15.8917 7.5189 13.4785 5.10828 10.5035 5.10828ZM10.5035 13.9939C8.57061 13.9939 7.00611 12.4285 7.00611 10.4965C7.00611 8.56453 8.57148 6.99915 10.5035 6.99915C12.4355 6.99915 14.0009 8.56453 14.0009 10.4965C14.0017 12.4285 12.4364 13.9939 10.5035 13.9939Z"/>
<path d="M14.8295 0.0664516C12.8975 -0.0236734 8.11214 -0.0192984 6.17839 0.0664516C4.47914 0.146077 2.98027 0.556451 1.77189 1.76483C-0.247609 3.78433 0.0105157 6.50558 0.0105157 10.4965C0.0105157 14.581 -0.216984 17.2392 1.77189 19.2281C3.79927 21.2546 6.55989 20.9895 10.5035 20.9895C14.5495 20.9895 15.946 20.9921 17.3766 20.4382C19.3218 19.6831 20.79 17.9445 20.9335 14.8216C21.0245 12.8887 21.0193 8.1042 20.9335 6.17045C20.7603 2.48408 18.7819 0.248452 14.8295 0.0664516ZM17.8876 17.892C16.5638 19.2158 14.7271 19.0977 10.4781 19.0977C6.10314 19.0977 4.34877 19.1625 3.06864 17.8788C1.59427 16.4115 1.86114 14.0551 1.86114 10.4825C1.86114 5.64808 1.36502 2.16645 6.21689 1.91795C7.33164 1.87858 7.65977 1.86545 10.4659 1.86545L10.5053 1.8917C15.1681 1.8917 18.8265 1.40345 19.0461 6.25445C19.096 7.36133 19.1074 7.69383 19.1074 10.4956C19.1065 14.8198 19.1888 16.5847 17.8876 17.892Z"/>
<path d="M16.1052 6.1546C16.8006 6.1546 17.3643 5.59087 17.3643 4.89547C17.3643 4.20008 16.8006 3.63635 16.1052 3.63635C15.4098 3.63635 14.8461 4.20008 14.8461 4.89547C14.8461 5.59087 15.4098 6.1546 16.1052 6.1546Z"/>
</g>
<defs>
<clipPath id="clip0_9701_96">
<rect width="21" height="21" fill="white"/>
</clipPath>
</defs>
</svg>
