<svg width="22" height="18" viewBox="0 0 22 18" xmlns="http://www.w3.org/2000/svg">
<path d="M21.0459 2.02038C20.2734 2.36289 19.4425 2.59456 18.5712 2.69802C19.4609 2.16497 20.1436 1.32154 20.4659 0.314881C19.6334 0.80873 18.7109 1.16699 17.73 1.36009C16.9441 0.523089 15.8243 0 14.5844 0C12.2054 0 10.276 1.92945 10.276 4.30841C10.276 4.6461 10.3142 4.9748 10.3881 5.29033C6.80746 5.11071 3.63262 3.39558 1.50749 0.788167C1.13671 1.42436 0.924001 2.16497 0.924001 2.95442C0.924001 4.44882 1.68518 5.76811 2.8406 6.54053C2.13469 6.51836 1.4699 6.32461 0.889299 6.00106C0.888978 6.01937 0.888978 6.03769 0.888978 6.05568C0.888978 8.14321 2.3747 9.88438 4.34528 10.2799C3.98413 10.3789 3.60274 10.4312 3.21042 10.4312C2.93217 10.4312 2.66259 10.4046 2.39976 10.3544C2.94792 12.0657 4.53871 13.3114 6.42446 13.3465C4.94966 14.5022 3.09218 15.1908 1.07309 15.1908C0.726075 15.1908 0.382277 15.1705 0.0458679 15.1304C1.95154 16.3533 4.21676 17.0662 6.64969 17.0662C14.5744 17.0662 18.9082 10.5013 18.9082 4.8074C18.9082 4.62072 18.904 4.43468 18.8957 4.25025C19.7381 3.64298 20.4685 2.88438 21.0459 2.02038Z" />
</svg>
